# xmcd CD database file
#
# Track frame offsets:
#	183
#	13870
#	30525
#	44413
#	56403
#	69770
#	86245
#	98118
#	115293
#	131825
#	145280
#	158858
#	175188
#	190020
#	201703
#	217600
#
# Disc length: 3056 seconds
#
# Revision: 2
# Processed by: cddbd v1.5.2PL0 Copyright (c) Steve Scherf et al.
# Submitted via: CDex 1.70beta2
#
DISCID=e20bee10
DTITLE=Various Artist - 206 - Die Superhits der Volksmusik - 05 - 91
DYEAR=1991
DGENRE=Volksmusik
TTITLE0=Alpentrio Tirol - Hast a bisserl Zeit für mi
TTITLE1=Marianne and Michael - Der Bua paßt nur in d'Lederhosen nei
TTITLE2=Alpenwelt Musikanten - Ich bin dein Engel
TTITLE3=Vreni and Rudi - Unser Bernhardiner
TTITLE4=Obervellacher Buam - Du wirst mein Herzblatt sein
TTITLE5=Pitztaler nachtigallen - Komm mit ins Stubaital
TTITLE6=Inge and Maria - Der blaue Engel
TTITLE7=Pössnecker Musikanten - Tränen im Wind
TTITLE8=Kastelruther Spatzen - Bis daß der Tod uns scheidet
TTITLE9=Die Schäfer - Halt den Sonnenstrahl fest
TTITLE10=Edith Prock - Wenn dein Herz net will
TTITLE11=Deichgraf - Wenn Engel reisen
TTITLE12=Tiroler Nachtschwärmer - Rose der Liebe
TTITLE13=Nockhalm Quintett - Schuld sind deine himmelblauen Augen
TTITLE14=Dieter and Dino - Im Tal Liebe
TTITLE15=Orig. Bregenzerwälder Dormusikanten - Grüne Tannen über'm See
EXTD=CD von I.B.\n YEAR: 1991
EXTT0=
EXTT1=
EXTT2=
EXTT3=
EXTT4=
EXTT5=
EXTT6=
EXTT7=
EXTT8=
EXTT9=
EXTT10=
EXTT11=
EXTT12=
EXTT13=
EXTT14=
EXTT15=
PLAYORDER=
